<?xml version="1.0" encoding="UTF-8" standalone="no"?>
<!-- Created with Inkscape (http://www.inkscape.org/) -->

<svg
   xmlns:dc="http://purl.org/dc/elements/1.1/"
   xmlns:cc="http://creativecommons.org/ns#"
   xmlns:rdf="http://www.w3.org/1999/02/22-rdf-syntax-ns#"
   xmlns:svg="http://www.w3.org/2000/svg"
   xmlns="http://www.w3.org/2000/svg"
   xmlns:sodipodi="http://sodipodi.sourceforge.net/DTD/sodipodi-0.dtd"
   xmlns:inkscape="http://www.inkscape.org/namespaces/inkscape"
   version="1.1"
   id="svg2"
   width="506"
   height="197"
   viewBox="0 0 506 197"
   sodipodi:docname="Swachh_Bharat_Abhiyan_logo.svg"
   inkscape:version="0.92.0 unknown">
  <metadata
     id="metadata8">
    <rdf:RDF>
      <cc:Work
         rdf:about="">
        <dc:format>image/svg+xml</dc:format>
        <dc:type
           rdf:resource="http://purl.org/dc/dcmitype/StillImage" />
        <dc:title></dc:title>
      </cc:Work>
    </rdf:RDF>
  </metadata>
  <defs
     id="defs6" />
  <sodipodi:namedview
     pagecolor="#ffffff"
     bordercolor="#666666"
     borderopacity="1"
     objecttolerance="10"
     gridtolerance="10"
     guidetolerance="10"
     inkscape:pageopacity="0"
     inkscape:pageshadow="2"
     inkscape:window-width="640"
     inkscape:window-height="480"
     id="namedview4"
     showgrid="false"
     inkscape:zoom="0.5770751"
     inkscape:cx="114.36986"
     inkscape:cy="98.5"
     inkscape:window-x="47"
     inkscape:window-y="24"
     inkscape:window-maximized="0"
     inkscape:current-layer="svg2" />
  <path
     style="fill:#000000"
     d="m 94.077677,188.67109 c -0.53236,-1.67733 -1.21243,-1.95304 -3.62647,-1.47023 -5.83186,1.16637 -9.17581,-5.40776 -4.91696,-9.66661 1.1,-1.1 2.9,-2 4,-2 1.11111,0 2,-0.66667 2,-1.5 0,-1.22222 -1.66667,-1.5 -9,-1.5 h -9 v 2.61663 c 0,2.15551 0.36553,2.52104 2.07421,2.07421 1.28833,-0.3369 2.80386,0.18723 4,1.38337 2.32528,2.32529 2.37226,2.97731 0.39518,5.48466 -1.47905,1.87574 -1.5222,1.85691 -1.28086,-0.55887 0.36942,-3.69775 -0.8869,-5.2318 -3.24922,-3.96752 -1.34624,0.72048 -1.93931,2.09749 -1.93931,4.5027 0,1.90565 -0.45,3.46482 -1,3.46482 -0.55,0 -1,-1.11375 -1,-2.475 0,-2.21621 -0.31343,-2.41232 -2.99752,-1.8755 -3.14829,0.62966 -6.00248,-0.89219 -6.00248,-3.20052 0,-2.54917 3.19854,-4.65927 6.16369,-4.06624 2.34916,0.46983 2.83631,0.22804 2.83631,-1.40774 0,-1.70641 -0.68801,-1.975 -5.05902,-1.975 -3.11803,0 -4.8219,-0.38367 -4.44098,-1 0.38816,-0.62806 11.01038,-1 28.55902,-1 17.960653,0 27.940983,0.35719 27.940983,1 0,0.55 -0.9,1 -2,1 -1.82222,0 -2,0.66667 -2,7.5 0,4.33333 -0.42222,7.5 -1,7.5 -0.55,0 -1,-1.575 -1,-3.5 0,-3.31982 -0.1766,-3.5 -3.43045,-3.5 -2.79615,0 -3.48953,0.41603 -3.75,2.25 -0.23407,1.64812 -0.98831,2.25 -2.81955,2.25 -3.365133,0 -4.244373,-4.97028 -1.05814,-5.98155 1.46115,-0.46375 2.05814,-1.50387 2.05814,-3.58584 0,-2.85247 -0.13664,-2.93261 -5.000003,-2.93261 -4.88889,0 -5,0.0667 -5,3 0,2.75069 -0.28527,3 -3.43261,3 -4.02163,0 -5.83624,3.15972 -3.28168,5.71429 1.76139,1.76138 5.71429,0.87478 5.71429,-1.28168 0,-2.85109 1.92986,-1.34615 2.9331,2.28728 1.08148,3.91677 -0.2174,7.11046 -1.38967,3.41695 z m 9.456573,-6.63684 c 0,-0.825 -0.45,-1.5 -1,-1.5 -0.55,0 -1,0.675 -1,1.5 0,0.825 0.45,1.5 1,1.5 0.55,0 1,-0.675 1,-1.5 z m -33.034203,-1.9588 c 0.99875,-1.20341 0.74477,-1.57574 -1.45077,-2.12678 -2.84998,-0.7153 -5.17337,0.71135 -4.06888,2.49845 0.96016,1.55357 4.09715,1.34234 5.51965,-0.37167 z m 42.034203,-4.60456 c 0,-2.85371 -0.22242,-3.04191 -3.25,-2.75 -2.70808,0.26111 -3.30276,0.77191 -3.56642,3.06336 -0.29285,2.54509 -0.0507,2.75 3.25,2.75 3.31241,0 3.56642,-0.21818 3.56642,-3.06336 z m 89.07023,10.94687 c -2.37291,-3.89225 -2.43783,-4.32813 -1.03505,-6.94925 0.81007,-1.51361 2.11489,-1.93426 6,-1.93426 4.62914,0 4.96482,-0.16903 4.96482,-2.5 0,-2.49123 -0.0333,-2.5 -9.5,-2.5 -5.225,0 -9.5,0.20119 -9.5,0.44709 0,0.24589 1.125,2.56292 2.5,5.14893 2.70254,5.08278 3.13926,7.40398 1.39301,7.40398 -0.60884,0 -0.84797,-0.675 -0.53138,-1.5 0.91216,-2.37707 -0.97262,-1.74266 -2.71274,0.9131 -2.14275,3.27025 -6.98198,4.25389 -10.28395,2.09036 -1.72783,-1.13211 -2.3919,-2.29237 -2.05324,-3.58739 0.2753,-1.05274 0.0928,-2.16608 -0.40558,-2.47409 -1.65387,-1.02215 -0.93758,-4.35478 1.17953,-5.48782 2.52298,-1.35026 4.13031,-0.21415 1.65602,1.17053 -2.16426,1.21119 -2.37904,4.33387 -0.24167,3.51368 1.78181,-0.68374 1.97147,0.49016 0.34238,2.11925 -0.87682,0.87682 -0.84712,1.53174 0.12245,2.7 1.75146,2.11038 4.3573,1.93424 7.17439,-0.48496 l 2.36078,-2.02735 -2.25,-1.59463 c -2.33012,-1.6514 -2.99666,-4.77119 -1.25,-5.85068 3.08537,-1.90687 -0.35481,-2.5 -14.5,-2.5 h -15.5 v 7.5 c 0,4.33333 -0.42222,7.5 -1,7.5 -0.55,0 -1,-0.66375 -1,-1.475 0,-1.08664 -0.74679,-1.32564 -2.83631,-0.90774 -3.37783,0.67557 -6.16369,-1.61427 -6.16369,-5.06624 0,-3.14654 2.37849,-4.86924 5.99084,-4.33906 2.40857,0.35351 3.00916,0.077 3.00916,-1.38515 0,-1.63376 -0.95109,-1.82681 -9,-1.82681 h -9 v 3 c 0,2.83333 0.22222,3 4,3 2.2,0 4,0.45 4,1 0,0.55 -1.99844,1 -4.44098,1 -5.47856,0 -6.43051,1.32997 -3.64685,5.09507 3.39718,4.59493 -0.12661,3.68458 -3.82814,-0.98897 -3.68208,-4.64901 -3.76921,-5.15506 -0.83403,-4.84431 1.92988,0.20432 2.29416,-0.29532 2.56037,-3.51179 0.29663,-3.58405 0.17493,-3.75 -2.75,-3.75 -1.68321,0 -3.06037,-0.45 -3.06037,-1 0,-0.65233 16.16667,-1 46.5,-1 30.33333,0 46.5,0.34767 46.5,1 0,0.55 -0.9,1 -2,1 -1.82222,0 -2,0.66667 -2,7.5 0,4.33333 -0.42222,7.5 -1,7.5 -0.57778,0 -1,-3.16667 -1,-7.5 0,-7.33333 -0.0556,-7.5 -2.5,-7.5 -2.44444,0 -2.5,0.16667 -2.5,7.5 0,4.33333 -0.42222,7.5 -1,7.5 -0.55,0 -1,-1.8 -1,-4 v -4 h -4.39301 c -5.29109,0 -6.37835,1.74966 -3.42243,5.5075 1.46277,1.85961 1.7602,2.94774 1.01061,3.69733 -0.74958,0.74958 -1.66926,0.0664 -3.12494,-2.32132 z m -45.59888,-4.2389 c 2.71532,-1.98549 1.29076,-4.86517 -2.20711,-4.46158 -3.03303,0.34996 -4.38018,3.49482 -2.11263,4.93183 1.80766,1.14556 2.16286,1.1069 4.31974,-0.47025 z m 37.52865,-4.14461 c 0,-0.83333 -0.88889,-1.5 -2,-1.5 -1.99224,0 -2.60112,1.06554 -1.33333,2.33333 1.21793,1.21793 3.33333,0.68908 3.33333,-0.83333 z m 88.25,9.27951 c -1.2375,-0.59683 -2.25,-1.67044 -2.25,-2.38581 0,-0.98436 0.70432,-0.89646 2.89612,0.36147 2.43109,1.39525 3.15366,1.44841 4.5,0.33104 2.31901,-1.9246 1.9726,-3.96109 -0.89612,-5.26816 -3.01916,-1.37563 -3.18489,-2.40569 -0.5,-3.1078 1.15334,-0.3016 2,-1.36401 2,-2.50964 0,-2.20235 -2.18933,-3.44892 -4.5,-2.56224 -0.825,0.31659 -1.5,0.10779 -1.5,-0.46399 0,-1.67756 3.74355,-2.382 6.06267,-1.14084 1.62657,0.87051 2.03598,1.84093 1.71097,4.0554 -0.38585,2.62897 -0.15333,2.91106 2.39955,2.91106 2.3486,0 2.82681,-0.42293 2.82681,-2.5 0,-1.375 -0.45,-2.5 -1,-2.5 -0.55,0 -1,-0.45 -1,-1 0,-0.55 2.10919,-1 4.68709,-1 h 4.68709 l -2.86419,-2.98957 c -1.5753,-1.64426 -2.58723,-3.26652 -2.24874,-3.60501 0.33849,-0.3385 2.03981,1.00681 3.78069,2.98957 3.16301,3.60246 3.17118,3.60501 11.56165,3.60501 4.61803,0 8.39641,0.42011 8.39641,0.93358 0,0.51347 -1.2375,1.07597 -2.75,1.25 -2.34071,0.26933 -2.79782,0.83733 -3.0713,3.81642 -0.17671,1.925 -0.71326,3.90155 -1.19233,4.39233 -0.49931,0.51153 0.22189,2.32523 1.68999,4.25 3.55645,4.66274 0.84784,4.33007 -3.19436,-0.39233 -3.75255,-4.384 -4.14536,-5.87073 -1.43655,-5.43714 1.63221,0.26126 1.95455,-0.27471 1.95455,-3.25 0,-3.55598 -0.009,-3.56286 -4.5,-3.56286 h -4.5 v 7.5 c 0,4.33333 -0.42222,7.5 -1,7.5 -0.57778,0 -1,-3.16667 -1,-7.5 0,-7.33333 -0.0556,-7.5 -2.5,-7.5 -2.44444,0 -2.5,0.16667 -2.5,7.5 0,4.33333 -0.42222,7.5 -1,7.5 -0.55,0 -1,-1.8 -1,-4 0,-3.60807 -0.24682,-4 -2.51905,-4 -2.16353,0 -2.43357,0.34061 -1.91334,2.41334 0.42424,1.69031 -0.0195,3.0385 -1.48095,4.5 -2.31385,2.31385 -3.51846,2.46647 -6.83666,0.86617 z M 17.284248,184.40372 c -3.3017,-2.69723 -3.75,-3.58983 -3.75,-7.46646 0,-2.42166 -0.45,-4.40301 -1,-4.40301 -0.55,0 -1.000001,-0.45 -1.000001,-1 0,-0.63158 7.000001,-1 19,-1 12,0 19,0.36842 19,1 0,0.55 -2.475,1 -5.5,1 -5.20926,0 -5.5,0.13299 -5.5,2.51588 0,2.13502 0.42064,2.48384 2.77862,2.30417 4.70205,-0.35829 6.36911,2.02544 4.61439,6.59816 -1.0398,2.70968 -2.37292,1.73135 -1.76727,-1.29693 0.67898,-3.39488 -0.76699,-4.65124 -3.60507,-3.13234 -1.43069,0.76568 -2.02067,2.09307 -2.02067,4.54624 0,1.90565 -0.45,3.46482 -1,3.46482 -0.55,0 -1,-1.13357 -1,-2.51905 0,-2.19112 -0.32715,-2.43695 -2.51299,-1.88833 -2.91713,0.73215 -5.48701,-0.99134 -5.48701,-3.67988 0,-2.29898 3.42718,-4.22932 6.03777,-3.40075 1.51771,0.4817 1.96223,0.15444 1.96223,-1.4446 0,-1.86014 -0.60148,-2.06739 -6,-2.06739 h -6 v 3.94098 c 0,3.99972 -1.14724,5.70409 -3.04856,4.52901 -0.72188,-0.44615 -0.69797,-1.07048 0.0768,-2.00398 0.61893,-0.74576 0.97828,-2.39319 0.79856,-3.66097 -0.25755,-1.81682 -0.95673,-2.30504 -3.301059,-2.30504 -2.67348,0 -3.00566,0.35399 -3.28434,3.5 -0.26983,3.04608 0.2456,3.98599 3.9743,7.2473 5.112439,4.47159 2.922779,5.02412 -2.46566,0.62217 z m 18.249999,-3.88478 c 1.33333,-0.87528 1.33333,-1.0941 0,-1.96938 -2.82204,-1.85255 -6.00416,-0.4491 -4.5,1.98469 0.77965,1.26151 2.56423,1.25544 4.5,-0.0153 z m 211.000003,4.44792 c 0,-2.11231 -0.3545,-2.45487 -2,-1.93261 -3.24937,1.03131 -6,-0.35877 -6,-3.0322 0,-2.79548 3.16343,-4.86809 6.03777,-3.95581 1.51771,0.4817 1.96223,0.15444 1.96223,-1.4446 0,-1.78357 -0.61777,-2.06739 -4.5,-2.06739 -2.475,0 -4.5,-0.45 -4.5,-1 0,-0.55 1.74375,-1 3.875,-1 3.49783,0 3.93288,-0.2894 4.46967,-2.97333 0.79761,-3.98806 4.67048,-5.01185 9.37502,-2.47829 1.88004,1.01246 3.85305,2.65327 4.38446,3.64623 0.59796,1.1173 2.09621,1.80539 3.93103,1.80539 1.63065,0 2.96482,0.45 2.96482,1 0,0.55 -0.9,1 -2,1 -1.82418,0 -2,0.66667 -2,7.58333 0,5.55007 -0.32928,7.47358 -1.22809,7.17397 -0.81014,-0.27004 -1.23554,-2.76574 -1.25,-7.33333 l -0.0219,-6.92397 -5.75,-0.2999 c -5.60937,-0.29257 -5.75,-0.236 -5.75,2.31285 0,1.8895 0.48444,2.56349 1.75,2.43475 5.08607,-0.51736 7.14672,1.65163 5.75,6.0523 -0.94423,2.97501 -2.64517,2.4266 -1.8837,-0.60733 0.77623,-3.09278 -1.12044,-4.72841 -3.81242,-3.28771 -1.20567,0.64525 -1.80388,2.11443 -1.80388,4.43022 0,1.90565 -0.45,3.46482 -1,3.46482 -0.55,0 -1,-1.15532 -1,-2.56739 z m -1,-4.44792 c 1.33333,-0.87528 1.33333,-1.09566 0,-1.98344 -2.1052,-1.4017 -4.41574,-0.79657 -4.81184,1.26023 -0.3753,1.94878 2.32635,2.35483 4.81184,0.72321 z m 10.5,-12.54182 c -3.73764,-3.09626 -7.85779,-2.94416 -8.31955,0.30713 -0.30045,2.11553 0.0282,2.24785 5.5,2.21404 l 5.81955,-0.036 -3,-2.4852 z m -87.28159,15.99755 c -1.66447,-1.16583 -2.07197,-2.17569 -1.6141,-4 0.45919,-1.82958 0.20992,-2.44042 -0.9959,-2.44042 -0.88463,0 -1.60841,-0.45 -1.60841,-1 0,-0.55 1.8,-1 4,-1 4.59972,0 4.8694,0.4662 1.75,3.02519 -2.16086,1.77266 -2.17931,1.91761 -0.4657,3.65888 1.71406,1.74173 1.90638,1.74304 4.88544,0.0333 3.97748,-2.28275 4.73457,-1.57385 1.24806,1.16864 -3.21075,2.52558 -4.26885,2.60706 -7.19939,0.55442 z M 79.034247,156.36301 c -9.64839,-1.9135 -19.53438,-5.70811 -27.0099,-10.36739 -16.95382,-10.56686 -28.4901,-30.06254 -28.4901,-48.146722 0,-6.19749 -0.0259,-6.25531 -2.39652,-5.35399 -1.708319,0.6495 -2.928789,0.49881 -4.249999,-0.52475 -1.79765,-1.39266 -1.79324,-1.48407 0.14652,-3.0345 1.1,-0.87922 3.13868,-2.01379 4.530399,-2.52127 1.98287,-0.72303 3.0527,-2.45687 4.94427,-8.01296 4.13186,-12.13652 13.56507,-23.92122 25.02533,-31.26358 9.65867,-6.18813 13.52572,-7.65125 28.5,-10.78313 8.53083,-1.78423 23.111793,-0.28189 34.376553,3.54195 l 9.87572,3.35233 5.87386,-2.42067 c 3.23063,-1.33137 7.22387,-3.03209 8.87387,-3.77937 1.65,-0.74728 5.25,-2.2456 8,-3.32959 2.75,-1.084 7.48279,-3.1094 10.5173,-4.50089 3.03452,-1.39148 7.98452,-3.47709 11,-4.63468 3.01549,-1.15759 6.3827,-2.51982 7.4827,-3.02719 23.38682,-10.78688 44.41543,-17.0223599 57.40647,-17.0223599 17.69664,0 30.06533,10.5189699 30.70263,26.1111099 0.13114,3.20824 0.4868,6.23505 0.79038,6.72624 0.30357,0.4912 2.19527,1.15976 4.20376,1.48569 2.00849,0.32593 7.53192,2.48964 12.27428,4.80824 6.89533,3.37121 10.15858,5.78989 16.29117,12.07479 7.55349,7.74109 13.94405,18.20281 15.33283,25.10074 0.67883,3.37168 0.40887,3.42575 16.49848,-3.30408 6.325,-2.64556 15.55,-6.48654 20.5,-8.5355 4.95,-2.04896 11.025,-4.59187 13.5,-5.65091 2.475,-1.05904 5.4,-2.29075 6.5,-2.73713 1.1,-0.44638 3.125,-1.2903 4.5,-1.87538 1.375,-0.58507 5.425,-2.27052 9,-3.74543 3.575,-1.47491 7.4,-3.05614 8.5,-3.51385 30.08631,-12.51876 44.06177,-18.0974 49,-19.55952 13.50177,-3.99762 16.65153,-4.5831 25,-4.64702 7.80876,-0.0598 9.75496,0.29061 14.70384,2.64733 9.99989,4.76208 14.73838,12.56447 14.7742,24.32717 0.0147,4.81456 -0.64061,8.97041 -1.97092,12.5 -2.21662,5.88116 -8.04219,14.02588 -12.26802,17.15192 -2.59869,1.92238 -2.86079,1.94247 -4.46122,0.34204 -1.60042,-1.60042 -1.45877,-1.95018 2.41116,-5.95338 2.26131,-2.33919 5.39386,-6.72807 6.96122,-9.75307 2.48368,-4.79352 2.84974,-6.60122 2.84974,-14.07303 0,-7.67917 -0.28684,-9.00648 -2.75112,-12.73025 -5.45294,-8.23996 -17.24582,-11.06676 -32.24609,-7.72951 -6.95219,1.54671 -24.19824,7.46434 -32.00279,10.9811 -1.65,0.7435 -7.05,2.99016 -12,4.99258 -4.95,2.00242 -10.35,4.27045 -12,5.04007 -1.65,0.76961 -8.175,3.49655 -14.5,6.05986 -14.62272,5.9261 -27.9276,11.38069 -30.5,12.50407 -1.1,0.48037 -6.5,2.72212 -12,4.98167 -5.5,2.25954 -10.9,4.49642 -12,4.97083 -1.1,0.47441 -4.7,2.03097 -8,3.45902 l -6,2.59644 -0.18023,8.22358 c -0.3439,15.692232 -5.52406,27.536042 -17.33854,39.642552 -12.03911,12.33668 -35.45896,21.28603 -51.79488,19.79221 -16.91815,-1.54706 -31.90872,-6.97283 -39.99592,-14.47632 -0.74995,-0.69582 -2.8911,-2.43025 -4.75811,-3.85429 -9.98143,-7.61321 -19.35705,-27.95837 -19.41496,-42.130582 l -0.0174,-4.25 h -12 -12 v 5.2899 c 0,22.010562 -16.79037,44.701052 -40.08042,54.164652 -11.00552,4.47194 -28.108343,6.41916 -38.419583,4.37421 z m 26.332233,-6.35112 c 9.54865,-2.25105 15.92946,-5.23214 23.70385,-11.07437 8.39895,-6.31156 12.68872,-11.42872 17.01998,-20.3027 7.30626,-14.96923 7.25856,-29.152432 -0.15054,-44.767262 -3.75742,-7.91884 -11.18964,-16.69614 -18.06866,-21.33873 -4.26213,-2.87648 -4.63022,-2.9518 -7.65711,-1.5668 -1.74886,0.80022 -8.11057,3.5376 -14.13713,6.08306 -6.02656,2.54547 -12.812823,5.47337 -15.080573,6.50645 -2.26775,1.03308 -6.56193,2.81422 -9.54262,3.9581 -2.98069,1.14387 -6.31943,2.49389 -7.41943,3.00003 -1.1,0.50615 -8.075,3.43728 -15.5,6.51363 -7.425,3.07635 -16.875,7.06711 -21,8.86834 l -7.5,3.27498 0.12739,9.43381 c 0.14512,10.746222 1.4466,15.108902 7.49833,25.135062 3.61427,5.98794 7.57271,10.29417 14.8827,16.19035 5.14761,4.15201 16.64795,8.90984 26.49158,10.95989 4.85152,1.01038 20.54937,0.48945 26.332233,-0.87384 z M 60.425337,108.19006 c -1.98489,-2.2857 -4.1432,-5.17761 -4.79624,-6.42648 -1.49462,-2.858302 -0.50543,-4.814972 1.56536,-3.096362 1.27363,1.05701 1.43697,0.67694 1.16098,-2.70145 -0.20909,-2.55932 -0.77161,-3.83955 -1.6117,-3.66802 -1.67666,0.34235 -5.20949,-1.55558 -5.20949,-2.79869 0,-1.51602 77.279443,-1.28537 78.800003,0.23519 1.84608,1.84607 1.44013,2.55133 -1.2957,2.25101 -3.45564,-0.37933 -4.00711,1.09432 -1.56928,4.1935 2.97925,3.78751 2.60073,7.019742 -1.27608,10.896552 -5.45578,5.45578 -11.41957,5.78922 -16.29759,0.9112 -1.94831,-1.94831 -2.86168,-2.25486 -4.34814,-1.45933 -3.38262,1.81032 -7.946503,1.16469 -10.612503,-1.50131 -1.37961,-1.37961 -2.23047,-2.95806 -1.89079,-3.50767 0.33968,-0.54961 -0.0861,-1.702982 -0.94616,-2.563052 -0.86007,-0.86007 -1.56376,-1.98161 -1.56376,-2.49233 0,-1.37137 11.398923,-1.12965 12.800003,0.27143 1.94004,1.94004 1.39801,2.8 -1.76482,2.8 -3.442193,0 -6.044043,3.391142 -4.096273,5.338912 0.83225,0.83225 2.27219,0.51517 5.544913,-1.221 3.99287,-2.11822 4.36511,-2.62328 3.84606,-5.218502 -0.47534,-2.37672 -0.16464,-3.02797 1.79773,-3.76819 2.47733,-0.93447 5.87239,0.16628 5.87239,1.90396 0,0.53065 -1.158,0.96482 -2.57332,0.96482 -3.67445,0 -2.84015,3.320692 1.00303,3.992292 3.5871,0.62686 4.5078,2.73643 1.38814,3.18061 -1.26358,0.1799 -2.44751,1.1146 -2.63096,2.0771 -0.43469,2.28072 4.65424,2.40064 8.89139,0.20952 l 2.97896,-1.54048 -3.08077,-2.5923 c -3.45972,-2.911152 -3.64879,-5.976462 -0.47647,-7.724612 1.1,-0.60617 2.21197,-1.2391 2.47104,-1.4065 2.72003,-1.75761 -28.938423,-3.29659 -33.309523,-1.61924 -1.38566,0.53173 -1.66152,2.1985 -1.66152,10.039072 0,9.15116 -0.0532,9.36823 -2,8.15247 -1.1,-0.68696 -2,-2.08892 -2,-3.11547 0,-1.29659 -0.48633,-1.67982 -1.5929,-1.25518 -4.29373,1.64766 -6.42432,1.64113 -9.5494,-0.0292 -6.88927,-3.68239 -9.63692,-4.26947 -11.31315,-2.41725 -1.38886,1.53466 -1.25458,1.95285 1.46312,4.55657 2.87886,2.75812 3.81585,4.59608 2.24233,4.39846 -0.4125,-0.0518 -2.37401,-1.96431 -4.35891,-4.25 z m 18.82548,-5.29167 c 2.35588,-0.89972 4.28343,-1.95249 4.28343,-2.33948 0,-0.966062 -4.69078,-3.024662 -6.89207,-3.024662 -2.474,0 -5.29772,3.341852 -4.52505,5.355382 0.78819,2.054 1.77513,2.05521 7.13369,0.009 z m 46.589933,-2.11414 c 0.67049,-3.416782 -0.67653,-5.017722 -2.76412,-3.285172 -1.85075,1.53599 -1.96917,3.208382 -0.34238,4.835172 1.81686,1.81686 2.51406,1.46899 3.1065,-1.55 z M 70.349697,95.784248 c 2.20008,-1.75523 8.30293,-1.55581 11.03915,0.36071 2.24978,1.57581 2.29252,1.54873 1.9725,-1.25 l -0.3271,-2.86071 h -9.5 -9.5 l -0.30536,3.66601 c -0.23949,2.87521 0.0841,3.74809 1.5,4.04647 0.99295,0.20925 2.1988,-0.31546 2.67968,-1.16601 0.48088,-0.85056 1.57939,-2.10897 2.44113,-2.79647 z M 264.94881,149.5561 c 25.60695,-6.54915 44.44098,-28.67248 44.56099,-52.343422 0.0223,-4.39388 -0.17513,-4.8054 -2.22555,-4.63931 -3.95951,0.32074 -4.75,0.002 -4.75,-1.9178 0,-1.14317 1.17047,-2.3635 2.98968,-3.11705 2.53983,-1.05203 2.89865,-1.63453 2.38476,-3.87132 -1.31734,-5.73385 -7.50486,-16.92899 -12.34465,-22.33529 -5.73817,-6.40984 -17.03112,-13.89509 -25.40246,-16.83737 -6.90886,-2.42827 -8.62733,-2.45936 -8.62733,-0.15607 0,4.65002 -11.85347,18.51299 -15.38052,17.98796 -3.27454,-0.48744 -2.94594,-2.47962 1.15332,-6.99219 4.13365,-4.55044 9.2272,-11.74436 9.2272,-13.03213 0,-2.04559 -24.06681,-0.31489 -29.5,2.12142 -23.80306,10.67357 -35.13067,23.87862 -38.62277,45.02408 -4.40312,26.661952 15.3765,53.386442 44.78234,60.505972 8.74436,2.11712 22.60117,1.94367 31.75499,-0.39748 z m -34.66456,-39.10195 c -0.9625,-0.5606 -1.75,-2.12192 -1.75,-3.46959 0,-2.19203 -0.42163,-2.45031 -4,-2.45031 -2.88889,0 -4,0.41667 -4,1.5 0,2.04637 -1.24295,1.88334 -4.36514,-0.57258 -3.15481,-2.48157 -3.31075,-3.51741 -0.63486,-4.21717 2.78592,-0.72853 2.49799,-2.547162 -0.52333,-3.305462 -4.5811,-1.14979 -6.41213,-6.33703 -3.04961,-8.63948 4.11663,-2.81883 9.57294,1.95158 9.57294,8.36955 0,3.750642 0.10369,3.865142 3.5,3.865142 3.47371,0 3.5,-0.0333 3.5,-4.433582 0,-4.06003 -0.2252,-4.46024 -2.67288,-4.75 -1.47009,-0.17403 -2.8598,-0.88558 -3.08827,-1.58122 -0.33002,-1.00488 5.80194,-1.21038 29.83992,-1 23.12413,0.20239 30.35341,0.55942 30.67159,1.5148 0.22897,0.6875 -0.29619,1.25 -1.16703,1.25 -1.33333,0 -1.58333,1.5 -1.58333,9.500002 0,5.225 -0.36,9.5 -0.8,9.5 -1.96735,0 -3.2,-2.77345 -3.2,-7.2 v -4.800002 h -3.98095 c -3.46381,0 -4.06661,0.3413 -4.64037,2.627362 -0.43004,1.71339 -0.0549,3.65074 1.07838,5.56923 2.733,4.62661 1.01974,4.4443 -2.38341,-0.25361 -3.25459,-4.49283 -3.90283,-8.009932 -1.79826,-9.756572 0.70147,-0.58217 3.50992,-1.19977 6.24101,-1.37245 3.7822,-0.23914 5.04481,-0.73102 5.29793,-2.06396 0.29671,-1.5625 -0.63981,-1.75 -8.74101,-1.75 h -9.07332 v 4.17126 c 0,2.49376 -0.67184,4.913632 -1.67058,6.017232 -1.57424,1.73952 -1.50636,2.01739 1.1771,4.81831 1.56622,1.63479 2.49669,3.31453 2.0677,3.73277 -0.93244,0.90908 -10.54735,-9.64773 -10.56319,-11.597982 -0.008,-0.95081 0.7391,-1.17013 2.48897,-0.73095 2.31192,0.58026 2.5,0.36272 2.5,-2.89159 v -3.51905 h -5 -5 v 9.535182 c 0,9.22531 -0.065,9.5004 -2,8.46482 -1.75819,-0.94095 -2,-2.09382 -2,-9.53518 v -8.464822 h -3.5 -3.5 v 9.500002 c 0,5.225 -0.3375,9.48632 -0.75,9.46959 -0.4125,-0.0167 -1.5375,-0.48908 -2.5,-1.04969 z m -12.75,-16.419902 c 0,-1.83333 -0.53333,-2.5 -2,-2.5 -1.95113,0 -2.82537,2.84129 -1.33333,4.33333 1.51807,1.51808 3.33333,0.51968 3.33333,-1.83333 z m -34.42086,-10.25 c 1.7869,-10.00481 10.51912,-23.77742 20.22162,-31.8939 6.77731,-5.66946 18.43504,-11.88171 24.42908,-13.01792 1.79859,-0.34094 4.14934,-1.0714 5.22388,-1.62325 1.07455,-0.55185 7.14955,-1.13765 13.5,-1.30177 l 11.54628,-0.29842 0.33267,-3.30737 c 0.76233,-7.57911 -4.29116,-15.87913 -12.23799,-20.10009 -3.44826,-1.83154 -5.67336,-2.16526 -14.09468,-2.11391 -6.55255,0.04 -12.06847,0.6787 -16,1.8528 -7.34423,2.19326 -29.351,10.76908 -47.5,18.51027 -7.425,3.16703 -17.55,7.43056 -22.5,9.47453 -4.95,2.04396 -10.4496,4.37315 -12.22133,5.17597 l -3.22132,1.45968 8.26065,8.21669 c 8.49466,8.44946 15.55089,19.8267 17.19006,27.71669 0.39992,1.925 0.92577,3.8375 1.16855,4.25 0.24279,0.4125 6.01948,0.75 12.83709,0.75 h 12.39567 z M 44.534247,77.126208 c 3.575,-1.47481 7.4,-3.0809 8.5,-3.56909 2.90137,-1.28764 7.8103,-3.35391 18,-7.57654 4.95,-2.05129 11.37326,-4.7897 14.27391,-6.08535 2.90065,-1.29566 8.07565,-3.50206 11.5,-4.90312 3.424353,-1.40105 7.126093,-2.94816 8.226093,-3.438 1.1,-0.48984 4.25,-1.85116 7,-3.02515 l 5,-2.13452 -3.08209,-1.31122 c -8.28646,-3.52533 -25.947013,-4.67728 -37.882173,-2.47095 -11.4951,2.12499 -23.87149,9.13228 -32.17364,18.21616 -4.61802,5.05285 -10.28253,14.39076 -11.83126,19.50375 -0.68316,2.2554 -0.63436,2.27181 2.63656,0.88672 1.83293,-0.77617 6.2576,-2.61788 9.8326,-4.09269 z"
     id="path12"
     inkscape:connector-curvature="0" />
</svg>
